<?xml version="1.0" encoding="UTF-8"?>
<svg xmlns="http://www.w3.org/2000/svg" xmlns:xlink="http://www.w3.org/1999/xlink" width="427px" height="552px" viewBox="0 0 427 552" version="1.1">
<g id="surface1">
<rect x="0" y="0" width="427" height="552" style="fill:rgb(91.764706%,92.941176%,93.72549%);fill-opacity:1;stroke:none;"/>
<path style=" stroke:none;fill-rule:nonzero;fill:rgb(100%,100%,100%);fill-opacity:1;" d="M 173.867188 242.777344 L 251.851562 242.777344 L 251.851562 310.925781 L 173.867188 310.925781 Z M 173.867188 242.777344 "/>
<path style=" stroke:none;fill-rule:nonzero;fill:rgb(76.078431%,79.607843%,82.352941%);fill-opacity:1;" d="M 248.128906 233.832031 L 178.875 233.832031 C 173.296875 233.828125 168.769531 238.335938 168.753906 243.910156 L 168.753906 307.242188 C 168.769531 312.8125 173.300781 317.320312 178.875 317.308594 L 248.128906 317.308594 C 253.703125 317.316406 258.230469 312.8125 258.246094 307.242188 L 258.246094 243.910156 C 258.238281 238.335938 253.707031 233.824219 248.128906 233.832031 Z M 226.625 248.820312 C 231.996094 248.84375 236.332031 253.210938 236.316406 258.578125 C 236.300781 263.945312 231.941406 268.285156 226.570312 268.277344 C 221.199219 268.269531 216.847656 263.917969 216.847656 258.550781 C 216.847656 255.960938 217.878906 253.480469 219.714844 251.65625 C 221.550781 249.828125 224.035156 248.808594 226.625 248.820312 Z M 244.949219 308.007812 L 183.445312 308.007812 C 180.746094 308.007812 179.542969 306.066406 180.761719 303.664062 L 197.539062 270.589844 C 198.753906 268.191406 201.070312 267.980469 202.710938 270.113281 L 219.585938 292.050781 C 220.3125 293.0625 221.453125 293.691406 222.695312 293.773438 C 223.933594 293.851562 225.144531 293.367188 225.992188 292.457031 L 230.121094 288.296875 C 230.945312 287.386719 232.144531 286.914062 233.367188 287.019531 C 234.59375 287.121094 235.699219 287.789062 236.359375 288.824219 L 247.046875 304.015625 C 248.585938 306.21875 247.65625 308.007812 244.949219 308.007812 Z M 244.949219 308.007812 "/>
</g>
</svg>
